<?xml version="1.0" encoding="iso-8859-1"?>
<!-- Generator: Adobe Illustrator 16.2.1, SVG Export Plug-In . SVG Version: 6.00 Build 0)  -->
<!DOCTYPE svg PUBLIC "-//W3C//DTD SVG 1.1//EN" "http://www.w3.org/Graphics/SVG/1.1/DTD/svg11.dtd">
<svg version="1.1" id="Layer_1" xmlns="http://www.w3.org/2000/svg" xmlns:xlink="http://www.w3.org/1999/xlink" x="0px" y="0px"
	 width="18.22px" height="18.219px" viewBox="0 0 18.22 18.219" style="enable-background:new 0 0 18.22 18.219;"
	 xml:space="preserve">
<g id="Search_4_">
	<path style="fill:#FFFFFF;" d="M17.774,15.62l-3.958-3.958c-0.021-0.021-0.046-0.035-0.068-0.056
		c0.779-1.182,1.233-2.596,1.233-4.116c0-4.137-3.354-7.49-7.49-7.49S0,3.354,0,7.49s3.354,7.49,7.49,7.49
		c1.521,0,2.936-0.454,4.117-1.233c0.02,0.022,0.035,0.047,0.055,0.068l3.959,3.958c0.594,0.594,1.559,0.594,2.153,0
		C18.368,17.179,18.368,16.215,17.774,15.62z M7.491,12.385c-2.703,0-4.894-2.191-4.894-4.895s2.19-4.894,4.894-4.894
		s4.894,2.19,4.894,4.894S10.194,12.385,7.491,12.385z"/>
</g>
</svg>
