<?xml version="1.0" encoding="iso-8859-1"?>
<!-- Generator: Adobe Illustrator 16.2.1, SVG Export Plug-In . SVG Version: 6.00 Build 0)  -->
<!DOCTYPE svg PUBLIC "-//W3C//DTD SVG 1.1//EN" "http://www.w3.org/Graphics/SVG/1.1/DTD/svg11.dtd">
<svg version="1.1" id="Layer_1" xmlns="http://www.w3.org/2000/svg" xmlns:xlink="http://www.w3.org/1999/xlink" x="0px" y="0px"
	 width="13px" height="13px" viewBox="0 0 13 13" style="enable-background:new 0 0 13 13;" xml:space="preserve">
<g>
	<g>
		<path style="fill:#010002;" d="M10.631,8.312c-0.761,0-1.432,0.362-1.869,0.917L4.695,7.15c0.053-0.198,0.092-0.403,0.092-0.619
			c0-0.235-0.045-0.456-0.109-0.672L8.725,3.79c0.438,0.58,1.125,0.959,1.907,0.959c1.323,0,2.395-1.07,2.395-2.394
			c0-1.322-1.071-2.394-2.395-2.394c-1.321,0-2.394,1.071-2.394,2.394c0,0.216,0.038,0.422,0.092,0.621L4.266,5.056
			C3.826,4.5,3.154,4.137,2.393,4.137C1.07,4.137,0,5.209,0,6.531s1.07,2.394,2.393,2.394c0.782,0,1.47-0.38,1.908-0.961
			l4.046,2.069c-0.063,0.215-0.109,0.438-0.109,0.674c0,1.322,1.072,2.394,2.394,2.394c1.323,0,2.395-1.071,2.395-2.394
			C13.025,9.384,11.954,8.312,10.631,8.312z"/>
	</g>
</g>
</svg>
