<?xml version="1.0" encoding="utf-8"?>
<!-- Generator: Adobe Illustrator 16.2.1, SVG Export Plug-In . SVG Version: 6.00 Build 0)  -->
<!DOCTYPE svg PUBLIC "-//W3C//DTD SVG 1.1//EN" "http://www.w3.org/Graphics/SVG/1.1/DTD/svg11.dtd">
<svg version="1.1" id="Layer_1" xmlns="http://www.w3.org/2000/svg" xmlns:xlink="http://www.w3.org/1999/xlink" x="0px" y="0px"
	 width="61.14px" height="144.222px" viewBox="0 0 61.14 144.222" enable-background="new 0 0 61.14 144.222" xml:space="preserve">
<polygon opacity="0.2" points="14.457,126.009 14.457,0 52.689,0 52.689,126.009 33.574,118.968 "/>
<polygon fill="#E81F64" points="11.454,123.006 11.454,0 49.686,0 49.686,123.006 30.572,115.965 "/>
<g>
	<path fill="#020202" d="M26.477,84.228c-0.474-0.546-0.829-1.146-1.066-1.8c-0.236-0.654-0.354-1.362-0.354-2.124
		c0-2.152,0.853-3.968,2.557-5.445c1.705-1.478,3.834-2.217,6.389-2.217c2.409,0,4.467,0.757,6.171,2.271
		c1.705,1.514,2.557,3.312,2.557,5.392c0,0.824-0.145,1.581-0.433,2.271c-0.289,0.69-0.711,1.282-1.268,1.776
		c0.536,0.309,0.938,0.662,1.205,1.059c0.268,0.397,0.402,0.836,0.402,1.321c0,0.844-0.299,1.47-0.896,1.877
		c-0.598,0.407-1.509,0.61-2.733,0.61H21.92c-1.236,0-2.153-0.204-2.75-0.61c-0.598-0.406-0.896-1.033-0.896-1.877
		c0-0.845,0.299-1.473,0.896-1.885c0.597-0.412,1.514-0.618,2.75-0.618L26.477,84.228L26.477,84.228z M33.906,84.32
		c1.256,0,2.267-0.306,3.028-0.919c0.762-0.613,1.143-1.403,1.143-2.372c0-0.958-0.386-1.746-1.158-2.363
		c-0.772-0.618-1.776-0.927-3.013-0.927c-1.256,0-2.275,0.307-3.059,0.919c-0.783,0.612-1.174,1.403-1.174,2.371
		c0,0.968,0.389,1.759,1.167,2.372C31.617,84.014,32.641,84.32,33.906,84.32z"/>
	<path fill="#020202" d="M35.39,66.029c0.938-0.113,1.668-0.5,2.194-1.159c0.524-0.659,0.787-1.529,0.787-2.61
		c0-0.938-0.27-1.979-0.811-3.128c-0.541-1.148-0.811-1.856-0.811-2.125c0-0.587,0.181-1.066,0.541-1.437
		c0.359-0.371,0.823-0.556,1.39-0.556c1.071,0,2.037,0.747,2.896,2.24c0.86,1.493,1.29,3.249,1.29,5.268
		c0,2.461-0.839,4.516-2.518,6.164s-3.785,2.472-6.318,2.472c-2.544,0-4.666-0.801-6.364-2.402c-1.699-1.601-2.55-3.597-2.55-5.986
		c0-2.307,0.798-4.238,2.396-5.793c1.596-1.555,3.548-2.333,5.854-2.333c0.751,0,1.277,0.17,1.576,0.51
		c0.298,0.34,0.448,0.994,0.448,1.962L35.39,66.029L35.39,66.029z M32.131,66.091V59.51c-0.846,0.062-1.551,0.402-2.117,1.021
		c-0.566,0.618-0.851,1.354-0.851,2.209c0,0.845,0.269,1.571,0.804,2.178C30.504,65.525,31.224,65.916,32.131,66.091z"/>
	<path fill="#020202" d="M30.169,51.446v0.185c0,0.875-0.193,1.563-0.579,2.062c-0.387,0.499-0.909,0.75-1.568,0.75
		c-0.68,0-1.205-0.25-1.576-0.75s-0.582-1.249-0.634-2.248h-2.193c-1.226,0-2.137-0.206-2.733-0.618
		c-0.599-0.412-0.896-1.04-0.896-1.885c0-0.834,0.298-1.455,0.896-1.861c0.597-0.407,1.509-0.61,2.733-0.61h2.193v-0.433
		c0-0.989,0.196-1.758,0.587-2.31c0.391-0.551,0.932-0.826,1.622-0.826c0.71,0,1.246,0.265,1.606,0.795
		c0.359,0.53,0.541,1.321,0.541,2.371v0.402h8.837c1.235,0,2.149,0.201,2.741,0.604c0.593,0.402,0.89,1.025,0.89,1.869
		c0,0.845-0.299,1.473-0.896,1.885s-1.509,0.618-2.733,0.618L30.169,51.446L30.169,51.446z"/>
	<path fill="#020202" d="M40.906,31.162c0.618,0.505,1.089,1.115,1.414,1.831c0.324,0.715,0.487,1.496,0.487,2.34
		c0,2.132-0.839,3.926-2.519,5.384c-1.679,1.457-3.774,2.186-6.287,2.186c-2.482,0-4.573-0.752-6.272-2.256
		c-1.7-1.503-2.549-3.337-2.549-5.5c0-0.844,0.145-1.594,0.433-2.248c0.289-0.654,0.736-1.233,1.344-1.738
		c-0.524-0.288-0.922-0.633-1.188-1.035c-0.268-0.402-0.402-0.85-0.402-1.344c0-0.834,0.293-1.452,0.88-1.854
		c0.588-0.401,1.499-0.602,2.734-0.602h10.026c1.226,0,2.137,0.203,2.733,0.61c0.598,0.407,0.896,1.022,0.896,1.846
		c0,0.556-0.14,1.025-0.417,1.406C41.941,30.57,41.503,30.895,40.906,31.162z M33.938,37.743c1.226,0,2.212-0.298,2.958-0.896
		c0.747-0.597,1.12-1.375,1.12-2.333c0-0.937-0.378-1.705-1.136-2.302c-0.758-0.598-1.738-0.896-2.943-0.896
		c-1.174,0-2.132,0.301-2.873,0.904c-0.742,0.604-1.112,1.367-1.112,2.294c0,0.947,0.368,1.723,1.104,2.325
		C31.794,37.442,32.754,37.743,33.938,37.743z"/>
</g>
</svg>
